<?xml version="1.0" encoding="UTF-8"?>
<!DOCTYPE svg PUBLIC "-//W3C//DTD SVG 1.1//EN" "http://www.w3.org/Graphics/SVG/1.1/DTD/svg11.dtd">
<svg version="1.1" xmlns="http://www.w3.org/2000/svg" xmlns:xlink="http://www.w3.org/1999/xlink" x="0" y="0" width="31.239" height="31.208" viewBox="0, 0, 31.239, 31.208">
  <g id="Скролл" transform="translate(-174.667, -173.449)">
    <g>
      <path d="M177.499,199.623 C176.433,198.463 176.271,198.084 175.6,196.926 C175.6,196.926 175.015,196.06 174.818,194.823 C174.696,194.129 174.652,193.426 174.671,192.722 C174.695,186.673 174.701,180.623 174.734,174.574 C174.742,173.693 175.724,173.126 177.216,173.65 C178.708,174.173 185.314,179.925 185.314,179.925 C188.629,178.955 191.005,179.177 192.183,179.299 C193.361,179.422 195.288,179.961 195.288,179.961 C195.288,179.961 201.934,174.258 203.43,173.746 C204.927,173.233 205.903,173.806 205.906,174.687 C205.897,180.737 205.861,186.787 205.843,192.836 C205.872,193.541 205.787,194.241 205.681,194.936 C205.476,196.171 204.885,197.033 204.885,197.033 C204.205,198.186 204.041,198.563 202.967,199.716 C199.546,203.28 195.12,204.37 190.35,204.647 L190.35,204.654 L190.249,204.657 C185.622,204.509 180.738,203.148 177.499,199.623" fill="#AC3437"/>
      <path d="M191.193,189.331 C191.929,184.828 190.423,183.372 186.549,185.276 C185.972,183.949 184.537,183.963 182.231,185.339 C182.458,184.082 181.634,183.738 178.586,184.972 C178.954,184.73 179.365,189.06 178.825,191.661 C178.559,193.959 180.044,194.598 182.638,194.195 C181.635,192.153 181.672,189.254 182.219,186.443 C182.929,186.232 184.25,185.366 183.415,189.803 C183.146,192.729 184.85,194.018 187.416,192.675 C186.21,191.387 186.641,191.557 186.562,189.695 C186.804,188.364 186.886,187.281 186.814,186.44 C188.036,186.008 188.385,188.099 188.011,192.281 C187.839,195.005 190.308,195.404 193.295,194.132 C191.567,193.556 190.861,192.181 191.193,189.331" fill="#FEFEFE"/>
      <path d="M195.57,199.143 L196.49,199.358 C196.731,199.257 196.996,199.201 197.213,199.054 C197.394,198.931 197.534,198.751 197.654,198.568 C198.136,197.836 198.27,196.974 198.387,196.125 C197.5,196.125 195.857,196.215 195.202,196.912 C195.028,197.097 194.937,197.346 194.804,197.563 L194.927,198.458 z M196.34,201.268 C195.343,201.232 195.104,201.321 194.179,200.907 C192.344,200.087 191.048,197.805 192.708,196.112 C194.232,194.557 196.644,194.34 198.675,194.143 L198.741,191.856 C195.529,194.621 193.073,193.732 193.147,188.992 C193.153,185.766 196.624,183.53 197.753,186.333 C193.45,192.169 199.959,192.657 198.877,186.075 C197.998,185.629 202.374,183.418 202.178,185.114 L201.6,194.473 C203.754,195.338 204.029,195.516 205.68,196.581 C206.32,196.993 205.14,198.77 204.546,198.291 C203.32,197.304 201.92,196.844 201.044,196.561 C200.53,197.969 199.812,199.334 198.632,200.297 C198.29,200.576 197.875,200.749 197.495,200.975 z" fill="#FEFEFE"/>
    </g>
  </g>
</svg>
